<?xml version="1.0" encoding="utf-8"?>
<!-- Generator: Adobe Illustrator 16.0.0, SVG Export Plug-In . SVG Version: 6.00 Build 0)  -->
<!DOCTYPE svg PUBLIC "-//W3C//DTD SVG 1.1//EN" "http://www.w3.org/Graphics/SVG/1.1/DTD/svg11.dtd">
<svg version="1.1" id="Layer_1" xmlns="http://www.w3.org/2000/svg" xmlns:xlink="http://www.w3.org/1999/xlink" x="0px" y="0px"
	 width="210px" height="108px" viewBox="0 0 210 108" enable-background="new 0 0 210 108" xml:space="preserve">
<g>
	<path fill="#FFFFFF" d="M198.098,106.739H11.902c-6.069,0-11.006-4.938-11.006-11.006V22.417c0-7.203,3.292-11.55,10.066-13.288
		c0.307-0.079,31.394-7.869,94.04-7.869c62.635,0,93.731,7.79,94.038,7.868c6.772,1.739,10.064,6.085,10.064,13.288v73.317
		C209.104,101.802,204.167,106.739,198.098,106.739z M105.002,5.76c-62.084,0-92.62,7.65-92.921,7.727
		c-4.81,1.234-6.684,3.738-6.684,8.929v73.317c0,3.588,2.918,6.506,6.506,6.506h186.196c3.587,0,6.506-2.918,6.506-6.506V22.417
		c0-5.191-1.874-7.695-6.683-8.929C197.621,13.41,167.076,5.76,105.002,5.76z M131.95,34.96H78.053
		c-3.999,0-7.252-3.253-7.252-7.253s3.253-7.253,7.252-7.253h16.498c1.951,0,2.18-0.296,2.638-0.886
		c0.318-0.41,0.597-0.837,0.872-1.256c1.228-1.865,2.908-4.418,7.035-4.418c4.13,0,5.812,2.554,7.041,4.419
		c0.274,0.418,0.554,0.845,0.87,1.254c0.458,0.591,0.688,0.887,2.637,0.887h16.307c4,0,7.254,3.253,7.254,7.253
		S135.95,34.96,131.95,34.96z M78.053,24.955c-1.518,0-2.752,1.235-2.752,2.753s1.234,2.753,2.752,2.753h53.897
		c1.519,0,2.754-1.235,2.754-2.753s-1.235-2.753-2.754-2.753h-16.307c-3.028,0-4.707-0.713-6.192-2.629
		c-0.406-0.524-0.745-1.039-1.073-1.537c-1.171-1.779-1.659-2.394-3.282-2.394c-1.619,0-2.106,0.615-3.276,2.393
		c-0.328,0.499-0.667,1.014-1.075,1.54c-1.485,1.916-3.164,2.628-6.194,2.628H78.053z"/>
	<path fill="#FFFFFF" d="M192.881,95.753H17.119c-2.946,0-5.343-2.396-5.343-5.344V49.782c0-2.946,2.397-5.343,5.343-5.343h175.763
		c2.946,0,5.344,2.397,5.344,5.343v40.627C198.225,93.356,195.828,95.753,192.881,95.753z M17.119,48.939
		c-0.457,0-0.843,0.386-0.843,0.843v40.627c0,0.457,0.386,0.844,0.843,0.844h175.763c0.457,0,0.844-0.387,0.844-0.844V49.782
		c0-0.457-0.387-0.843-0.844-0.843H17.119z"/>
	<g>
		<path fill="#FFFFFF" d="M27.993,61.042c0-1.807,1.356-2.815,2.816-2.815h6.743c7.369,0,11.54,5.84,11.54,12.202
			c0,8.098-5.422,12.547-11.54,12.547h-6.743c-1.46,0-2.816-1.008-2.816-2.814V61.042z M33.624,77.763h2.989
			c4.379,0,6.431-3.025,6.431-7.334c0-4.172-2.086-6.988-6.188-6.988h-3.232V77.763z"/>
		<path fill="#FFFFFF" d="M58.256,80.194c0,1.982-1.182,2.99-2.815,2.99c-1.634,0-2.816-1.008-2.816-2.99V61.009
			c0-1.982,1.182-2.99,2.816-2.99c1.633,0,2.815,1.007,2.815,2.99V80.194z"/>
		<path fill="#FFFFFF" d="M62.749,61.042c0-1.807,1.356-2.815,2.815-2.815h8.621c1.773,0,2.815,1.043,2.815,2.608
			c0,1.633-1.042,2.605-2.815,2.605H68.38v4.484h5.318c1.773,0,2.816,1.008,2.816,2.607s-1.043,2.607-2.816,2.607H68.38v4.623h6.013
			c1.773,0,2.815,0.973,2.815,2.605c0,1.564-1.042,2.607-2.815,2.607h-8.829c-1.459,0-2.815-1.008-2.815-2.814V61.042z"/>
		<path fill="#FFFFFF" d="M91.678,57.671c3.407,0,7.473,0.972,7.473,3.927c0,1.355-0.973,2.678-2.433,2.678
			c-1.321,0-2.711-1.184-4.901-1.184c-4.554,0-6.361,3.686-6.361,7.51c0,3.928,2.016,7.299,5.874,7.299
			c3.511,0,4.067-1.146,5.527-1.146c2.225,0,2.503,1.877,2.503,2.605c0,3.094-4.693,4.172-7.786,4.172
			c-7.786,0-12.166-5.84-12.166-12.93C79.408,63.093,84.24,57.671,91.678,57.671z"/>
		<path fill="#FFFFFF" d="M107.502,62.78c1.008-2.746,1.877-5.109,4.692-5.109c2.885,0,3.754,2.363,4.763,5.109l5.422,14.635
			c0.73,1.98,0.834,2.641,0.834,3.475c0,1.391-1.112,2.295-2.711,2.295c-1.842,0-2.434-1.182-2.955-2.746l-0.695-2.225h-9.246
			l-0.695,2.225c-0.521,1.564-1.112,2.746-2.954,2.746c-1.599,0-2.711-0.904-2.711-2.295c0-0.834,0.104-1.494,0.834-3.475
			L107.502,62.78z M112.369,63.929h-0.069l-3.024,9.072h5.909L112.369,63.929z"/>
		<path fill="#FFFFFF" d="M127.841,76.476c1.391,0,3.198,1.426,6.083,1.426c2.189,0,2.989-1.113,2.989-2.328
			c0-1.879-2.155-2.26-5.353-3.303c-2.92-0.939-5.944-2.189-5.944-6.674c0-5.389,4.206-7.925,8.898-7.925
			c4.519,0,7.021,1.564,7.021,3.718c0,1.529-1.008,2.643-2.503,2.643c-1.807,0-2.398-0.939-4.797-0.939
			c-1.529,0-2.572,0.801-2.572,2.018c0,1.424,1.391,1.598,5.283,2.885c3.06,1.008,6.014,2.572,6.014,7.264
			c0,5.701-4.205,8.273-9.454,8.273c-3.302,0-8.308-1.285-8.308-4.066C125.2,77.937,126.138,76.476,127.841,76.476z"/>
		<path fill="#FFFFFF" d="M150.259,63.44h-3.163c-1.877,0-2.92-1.043-2.92-2.605c0-1.635,1.043-2.608,2.92-2.608h11.957
			c1.877,0,2.92,0.973,2.92,2.608c0,1.563-1.043,2.605-2.92,2.605h-3.162v16.754c0,1.982-1.183,2.99-2.816,2.99
			c-1.633,0-2.815-1.008-2.815-2.99V63.44z"/>
		<path fill="#FFFFFF" d="M163.883,61.042c0-1.807,1.356-2.815,2.816-2.815h6.777c5.006,0,8.273,3.059,8.273,7.682
			c0,3.65-2.225,6.291-5.77,6.951l4.9,5.283c0.765,0.836,1.182,1.496,1.182,2.434c0,0.801-0.73,2.607-2.885,2.607
			c-1.46,0-1.981-0.521-2.677-1.391l-6.917-8.725h-0.069v7.125c0,1.982-1.183,2.99-2.815,2.99c-1.634,0-2.816-1.008-2.816-2.99
			V61.042z M169.515,68.899h3.72c1.842,0,2.885-1.217,2.885-2.781c0-1.668-1.287-2.678-2.885-2.678h-3.72V68.899z"/>
	</g>
</g>
<g>
</g>
<g>
</g>
<g>
</g>
<g>
</g>
<g>
</g>
<g>
</g>
<g>
</g>
<g>
</g>
<g>
</g>
<g>
</g>
<g>
</g>
<g>
</g>
<g>
</g>
<g>
</g>
<g>
</g>
</svg>
