<?xml version="1.0" encoding="utf-8"?>
<!-- Generator: Adobe Illustrator 16.0.0, SVG Export Plug-In . SVG Version: 6.00 Build 0)  -->
<!DOCTYPE svg PUBLIC "-//W3C//DTD SVG 1.1//EN" "http://www.w3.org/Graphics/SVG/1.1/DTD/svg11.dtd">
<svg version="1.1" id="Layer_1" xmlns="http://www.w3.org/2000/svg" xmlns:xlink="http://www.w3.org/1999/xlink" x="0px" y="0px"
	 width="156px" height="30px" viewBox="26.187 55.969 156 30" enable-background="new 26.187 55.969 156 30" xml:space="preserve">
<g>
	<g>
		<path fill="#FFFFFF" d="M27.153,61.408c0-1.808,1.356-2.815,2.816-2.815h6.743c7.369,0,11.54,5.84,11.54,12.203
			c0,8.098-5.422,12.547-11.54,12.547h-6.743c-1.46,0-2.816-1.009-2.816-2.814V61.408z M32.784,78.13h2.989
			c4.379,0,6.431-3.025,6.431-7.334c0-4.173-2.086-6.988-6.188-6.988h-3.232V78.13z"/>
		<path fill="#FFFFFF" d="M57.416,80.56c0,1.982-1.182,2.99-2.815,2.99c-1.634,0-2.816-1.008-2.816-2.99V61.375
			c0-1.981,1.182-2.989,2.816-2.989c1.633,0,2.815,1.006,2.815,2.989V80.56z"/>
		<path fill="#FFFFFF" d="M61.909,61.408c0-1.808,1.356-2.815,2.815-2.815h8.621c1.773,0,2.815,1.043,2.815,2.608
			c0,1.633-1.042,2.604-2.815,2.604H67.54v4.484h5.318c1.773,0,2.816,1.008,2.816,2.607c0,1.599-1.043,2.607-2.816,2.607H67.54
			v4.623h6.013c1.773,0,2.815,0.973,2.815,2.604c0,1.563-1.042,2.606-2.815,2.606h-8.829c-1.459,0-2.815-1.008-2.815-2.813V61.408z"
			/>
		<path fill="#FFFFFF" d="M90.838,58.037c3.407,0,7.473,0.972,7.473,3.927c0,1.355-0.973,2.678-2.433,2.678
			c-1.321,0-2.711-1.184-4.901-1.184c-4.554,0-6.361,3.686-6.361,7.51c0,3.928,2.016,7.299,5.874,7.299
			c3.511,0,4.067-1.146,5.527-1.146c2.225,0,2.503,1.877,2.503,2.604c0,3.095-4.693,4.173-7.786,4.173
			c-7.786,0-12.166-5.841-12.166-12.931C78.568,63.459,83.4,58.037,90.838,58.037z"/>
		<path fill="#FFFFFF" d="M106.662,63.146c1.008-2.746,1.877-5.109,4.691-5.109c2.886,0,3.755,2.363,4.764,5.109l5.422,14.635
			c0.73,1.979,0.834,2.642,0.834,3.476c0,1.391-1.111,2.295-2.711,2.295c-1.842,0-2.434-1.183-2.955-2.746l-0.695-2.226h-9.246
			l-0.694,2.226c-0.521,1.563-1.113,2.746-2.955,2.746c-1.599,0-2.711-0.904-2.711-2.295c0-0.834,0.104-1.494,0.834-3.476
			L106.662,63.146z M111.529,64.296h-0.069l-3.024,9.071h5.91L111.529,64.296z"/>
		<path fill="#FFFFFF" d="M127.001,76.843c1.392,0,3.198,1.426,6.083,1.426c2.189,0,2.989-1.113,2.989-2.328
			c0-1.879-2.155-2.26-5.353-3.303c-2.92-0.939-5.944-2.189-5.944-6.674c0-5.39,4.206-7.926,8.897-7.926
			c4.52,0,7.021,1.564,7.021,3.719c0,1.528-1.008,2.643-2.503,2.643c-1.808,0-2.398-0.939-4.798-0.939
			c-1.528,0-2.571,0.801-2.571,2.018c0,1.425,1.392,1.599,5.282,2.886c3.061,1.008,6.015,2.571,6.015,7.264
			c0,5.701-4.205,8.273-9.454,8.273c-3.302,0-8.308-1.285-8.308-4.066C124.36,78.304,125.299,76.843,127.001,76.843z"/>
		<path fill="#FFFFFF" d="M149.419,63.806h-3.163c-1.877,0-2.92-1.043-2.92-2.604c0-1.635,1.043-2.608,2.92-2.608h11.957
			c1.877,0,2.92,0.974,2.92,2.608c0,1.563-1.043,2.604-2.92,2.604h-3.162V80.56c0,1.982-1.183,2.99-2.815,2.99
			c-1.634,0-2.815-1.008-2.815-2.99L149.419,63.806L149.419,63.806z"/>
		<path fill="#FFFFFF" d="M163.043,61.408c0-1.808,1.355-2.815,2.816-2.815h6.777c5.006,0,8.272,3.06,8.272,7.683
			c0,3.649-2.226,6.291-5.771,6.95l4.9,5.283c0.766,0.836,1.182,1.496,1.182,2.435c0,0.801-0.729,2.606-2.885,2.606
			c-1.46,0-1.98-0.521-2.677-1.391l-6.917-8.725h-0.068v7.125c0,1.981-1.184,2.99-2.816,2.99s-2.815-1.009-2.815-2.99
			L163.043,61.408L163.043,61.408z M168.676,69.265h3.719c1.843,0,2.886-1.217,2.886-2.78c0-1.668-1.287-2.679-2.886-2.679h-3.719
			V69.265z"/>
	</g>
</g>
</svg>
